<svg width="165" height="242" viewBox="0 0 165 242" fill="none" xmlns="http://www.w3.org/2000/svg">
<path d="M11.066 152.767L1.37078 129.957L13.0723 126.822L27.0028 123.089L35.568 117.165L31.6755 111.553L44.3961 103.305L51.0827 101.513L58.4139 111.043L60.0936 103.939L54.028 94.6747L58.6134 71.6679L57.706 68.2814L65.0056 62.0908L63.9469 58.1398L73.9768 55.4523L72.0107 48.1148L66.3908 47.2009L67.4736 31.1821L79.3345 21.9545L87.0797 24.1138L93.2649 18.2219L103.311 2.22118L122.447 6.7728L138.049 2.59223L136.115 10.9749L141.074 13.8807L143.972 4.63503L157.345 1.05169L180.071 10.0859L181.321 23.6649L189.265 28.7956L183.931 42.3237L194.709 49.1149L211.147 65.8836L222.586 70.6829L223.645 74.6339L228.85 82.9182L242.829 81.5925L244.492 87.8012L253.097 90.9401L249.785 107.556L234.231 114.144L224.153 114.424L223.636 123.637L237.343 136.903L242.183 154.964L243.393 159.48L226.469 167.644L219.966 185.72L223.404 189.638L224.351 202.089L217.155 206.437L210.732 200.294L194.572 204.623L187.575 211.943L182.871 207.759L181.056 200.986L172.698 203.225L168.383 211.641L163.225 205.763L144.837 210.691L127.563 215.319L95.5153 209.387L60.0684 208.601L48.7171 215.273L40.916 217.363L42.5797 223.572L35.9885 230.177L23.4273 232.333L25.3933 239.671L22.1536 238.724L16.3905 230.589L18.8344 219.65L14.5917 210.503L10.0385 206.883L10.8188 189.735L24.5025 180.624L22.5365 173.287L11.066 152.767Z" stroke="#ECC4A4" stroke-width="2"/>
</svg>
