<svg width="133" height="285" viewBox="0 0 133 285" fill="none" xmlns="http://www.w3.org/2000/svg">
<path d="M30.5166 6.91078L28.8446 23.6394H51.2772L54.0638 28.0558L76.4963 31.9368L82.6269 23.6394L118.714 21.4981L145.745 -5L155.637 2.49442L145.745 6.91078L150.76 15.8773L147.277 21.4981L162.464 31.9368L164.136 47.461H169.013L173.611 59.3717L176.816 60.5762L190.192 95.9071L180.578 105.677L183.364 111.699L193.257 127.089L173.054 132.576L160.096 146.494V153.186L158.702 163.892L160.096 167.104L156.334 174.331L165.251 188.918V197.617L177.094 206.851L181.414 211.268L179.045 222.911V243.253L169.988 246.197V250.48L149.506 263.862L136.967 269.483V276.041L133.901 283L122.197 272.561L110.075 274.569L99.4862 283L92.9375 274.569L96.2815 266.271V257.572L84.8563 253.156L75.521 247.401L77.4716 254.628L66.8824 259.58L60.8911 246.197L20.9027 247.401L13.6574 234.554L19.2307 230.138L20.9027 216.621L13.6574 206.851L16.1654 195.476L8.50212 184.502L1.25684 182.896V169.513L8.50212 163.892L3.20749 159.074L1.25684 146.494L13.6574 136.19C12.9608 134.896 11.5674 132.041 11.5674 130.97C11.5674 129.9 12.9608 126.777 13.6574 125.349L11.5674 117.587L17.9767 115.848L22.1567 102.732L38.1799 99.6543L39.8519 91.3569L17.9767 66.8662L8.36279 75.5651L1.25684 66.8662C3.9506 63.0743 9.14305 55.2498 8.36279 54.2862C7.58253 53.3227 3.30038 44.4275 1.25684 40.1004L16.5834 -0.315985L30.5166 6.91078Z" stroke="#ECC4A4" stroke-width="2"/>
</svg>
