<svg width="121" height="72" viewBox="0 0 121 72" fill="none" xmlns="http://www.w3.org/2000/svg">
<path d="M26.4553 45.839C25.4714 45.6853 24.4656 45.8996 23.6284 46.4414C22.7912 46.9831 22.1804 47.8146 21.911 48.7788C21.7848 49.3061 21.7266 49.8477 21.7387 50.39C21.7387 52.7035 21.7387 55.017 21.7387 57.3306V66.7499H24.0549L24.124 62.1939C24.2818 62.386 24.4759 62.5445 24.6949 62.6602C24.9139 62.7761 25.1541 62.8467 25.4004 62.8681C25.9615 62.9363 26.5306 62.885 27.0711 62.7176C27.611 62.5503 28.1102 62.2705 28.5355 61.8965C28.9614 61.5225 29.3041 61.0626 29.5419 60.5468C29.7791 60.031 29.9065 59.4706 29.915 58.9021C29.915 55.8978 29.915 52.8936 29.915 49.8893C29.918 48.9086 29.5704 47.9595 28.9353 47.2157C28.2995 46.4719 27.4193 45.9831 26.4553 45.839ZM27.5788 58.7286C27.5691 59.175 27.3926 59.6014 27.0838 59.9222C26.775 60.243 26.3571 60.4346 25.9136 60.4584C25.4702 60.4822 25.0346 60.3366 24.6937 60.0508C24.3521 59.7648 24.1313 59.3599 24.0749 58.917C24.0749 58.8079 24.0749 58.6989 24.0749 58.5897C24.0749 55.7838 24.0749 52.9778 24.0749 50.162C24.081 49.7305 24.1908 49.307 24.3952 48.9275C24.5887 48.6086 24.8817 48.3631 25.2287 48.2295C25.5751 48.0958 25.9567 48.0815 26.3122 48.1888C26.6665 48.2976 26.9777 48.5155 27.2021 48.8116C27.4266 49.1078 27.5534 49.4674 27.5643 49.8397C27.5643 51.327 27.5643 52.8391 27.5643 54.3412C27.5643 55.8433 27.5934 57.281 27.5788 58.7385V58.7286Z" fill="#007933"/>
<path d="M99.9951 53.4438C100.471 52.8879 100.754 52.1922 100.804 51.4608C100.853 50.7494 100.853 50.0355 100.804 49.3241C100.789 48.5191 100.486 47.7466 99.9497 47.1489C99.4134 46.5512 98.6806 46.1687 97.8859 46.072C96.2989 45.7745 94.6974 46.0075 93.0018 45.9183V46.7263C93.0018 50.1173 93.0018 53.5099 93.0018 56.9042C93.0018 57.5536 93.0018 58.208 93.0315 58.8574C93.0497 59.3704 93.1692 59.8746 93.3822 60.341C93.5951 60.8074 93.8972 61.2269 94.2721 61.5752C94.647 61.9236 95.0862 62.1939 95.5655 62.3707C96.0441 62.5475 96.5531 62.6273 97.0633 62.6053C97.2355 62.6053 97.4078 62.6053 97.5558 62.6053C98.4185 62.6136 99.2581 62.3222 99.9327 61.7803C100.607 61.2385 101.074 60.4793 101.257 59.6308C101.489 58.4778 101.513 57.2921 101.326 56.1308C101.216 55.104 100.744 54.1508 99.9951 53.4438ZM95.3974 47.9905C96.001 47.8383 96.6368 47.8729 97.221 48.0896C97.4673 48.1741 97.6911 48.314 97.8755 48.4987C98.06 48.6835 98.2001 48.9081 98.285 49.1556C98.5999 50.0402 98.6357 51.0009 98.3888 51.907C98.2213 52.5514 97.9301 52.7399 97.2604 52.7497C96.6641 52.7497 96.0623 52.7497 95.4217 52.7497L95.3974 47.9905ZM99.1034 58.5005C99.0603 58.9636 98.848 59.3941 98.5077 59.709C98.1673 60.0238 97.7233 60.2004 97.261 60.2047C96.7988 60.209 96.3511 60.0407 96.0053 59.7323C95.6589 59.4239 95.4387 58.9974 95.3871 58.5352C95.3531 57.385 95.3871 56.2349 95.3871 55.065C95.3944 54.9844 95.4096 54.9047 95.432 54.827C95.8378 54.6686 96.2758 54.6108 96.709 54.6585C97.1421 54.7062 97.5571 54.858 97.9198 55.101C98.282 55.3441 98.5811 55.6713 98.7916 56.055C99.0015 56.4387 99.1173 56.8677 99.1276 57.3057C99.1276 57.7255 99.1198 58.1237 99.1034 58.5005Z" fill="#007933"/>
<path d="M5.82537 57.7419C5.33217 57.7419 4.89873 57.7419 4.46996 57.7419C4.18939 57.7529 3.91003 57.6986 3.6536 57.5834C3.39724 57.4682 3.17066 57.2952 2.99146 57.0776C2.77495 56.8487 2.60588 56.5787 2.4942 56.2834C2.38252 55.988 2.3304 55.6732 2.34096 55.3574C2.34096 52.3829 2.34096 49.4083 2.34096 46.4338V45.6952H0.0345178C0.0345178 45.9182 0 46.1066 0 46.2999C0 49.4777 0 52.6605 0 55.8383C0.0115261 56.968 0.462803 58.0483 1.25701 58.8472C2.05123 59.6461 3.1251 60.1001 4.24817 60.1117C4.6178 60.1117 4.98742 60.1117 5.35219 60.1117C5.51781 60.1253 5.68221 60.1485 5.84479 60.1811V66.844H8.12211V45.6952H5.80535L5.82537 57.7419Z" fill="#007933"/>
<path d="M51.1753 49.1705C51.1031 48.6146 50.9181 48.0796 50.6323 47.5982C50.3472 47.1168 49.9668 46.6992 49.5149 46.371C49.063 46.0428 48.5491 45.8109 48.005 45.6896C47.4608 45.5683 46.8979 45.56 46.3507 45.6655C45.4146 45.8311 44.5659 46.3235 43.955 47.0562C43.3436 47.7888 43.0087 48.7148 43.0093 49.6712C42.9844 51.1931 43.0093 52.7151 43.0093 54.2371C43.0093 55.8037 42.9699 57.3702 43.0093 58.9368C43.0148 59.669 43.2277 60.3845 43.6226 60.9992C44.0181 61.6139 44.5799 62.1024 45.2417 62.4071C45.8829 62.7584 46.6085 62.9214 47.3371 62.8776C48.0656 62.8337 48.7675 62.5848 49.362 62.1592C49.9541 61.7701 50.4346 61.2317 50.7555 60.5975C51.0764 59.9635 51.2262 59.2558 51.1904 58.5452V49.8893C51.2001 49.6496 51.1953 49.4095 51.1753 49.1705ZM48.8591 58.8773C48.8349 59.3275 48.6371 59.7503 48.3077 60.0559C47.9783 60.3615 47.5427 60.5256 47.095 60.5133C46.8724 60.5219 46.6503 60.4855 46.4417 60.406C46.2336 60.3266 46.0431 60.2057 45.8823 60.0508C45.7216 59.8958 45.593 59.7099 45.505 59.504C45.4171 59.2982 45.3709 59.0767 45.3697 58.8525C45.3406 57.2859 45.3697 55.7243 45.3697 54.1577C45.3697 52.7002 45.3697 51.2477 45.3697 49.7901C45.3503 49.4178 45.4492 49.0489 45.6524 48.737C45.855 48.425 46.1517 48.1861 46.4987 48.055C46.742 47.9646 47.0022 47.9293 47.26 47.9515C47.5184 47.9738 47.769 48.0531 47.9934 48.1837C48.2179 48.3143 48.4108 48.4931 48.5588 48.7074C48.7069 48.9217 48.8063 49.1661 48.8494 49.4233C48.8737 49.6172 48.884 49.8128 48.8791 50.0083V58.5006C48.8688 58.6145 48.8688 58.7484 48.8591 58.8773Z" fill="#007933"/>
<path d="M16.919 58.6344C16.9238 58.7153 16.9238 58.7964 16.919 58.8773C16.8947 59.3275 16.6969 59.7504 16.3669 60.0559C16.0375 60.3615 15.6026 60.5256 15.1543 60.5133C14.8619 60.5238 14.5719 60.4576 14.3129 60.3211C14.0538 60.1847 13.8342 59.9826 13.6759 59.735C13.6631 59.7185 13.6534 59.7001 13.6468 59.6805C13.614 59.6259 13.5843 59.5696 13.5576 59.5119C13.5576 59.4772 13.5333 59.4425 13.523 59.4078C13.4921 59.3328 13.469 59.2547 13.4545 59.1748C13.4029 58.954 13.3811 58.7272 13.3902 58.5006C13.378 58.3309 13.4193 58.1618 13.5072 58.0168C13.5958 57.8718 13.7275 57.7584 13.8834 57.6925C14.8097 57.1967 15.736 56.6514 16.6084 56.0516C17.2435 55.6292 17.7889 55.0838 18.2117 54.4471C18.6352 53.8103 18.9276 53.0951 19.0725 52.3433C19.277 51.3659 19.3334 50.3631 19.24 49.3687C19.1999 48.702 18.9961 48.0556 18.6479 47.4868C18.2997 46.918 17.8174 46.4445 17.2435 46.1081C16.6703 45.7717 16.023 45.5829 15.3593 45.5585C14.6956 45.534 14.0362 45.6746 13.4393 45.9679C12.7065 46.283 12.0859 46.814 11.6594 47.4911C11.233 48.1681 11.02 48.9593 11.0491 49.7604C11.0491 52.7349 11.0491 55.7095 11.0491 58.684C11.037 58.8589 11.037 59.0346 11.0491 59.2095C11.0874 59.5279 11.1565 59.8418 11.256 60.1465C11.2712 60.1987 11.2894 60.25 11.3106 60.3001C11.5472 60.8621 11.9039 61.3648 12.3552 61.7727C12.8066 62.1806 13.3416 62.4837 13.9222 62.6607C14.5027 62.8375 15.1148 62.8839 15.7154 62.7963C16.316 62.7089 16.8899 62.4896 17.397 62.1543C17.9903 61.7658 18.4714 61.2276 18.7935 60.5934C19.115 59.9593 19.2655 59.2513 19.2303 58.5402V56.7059C18.6188 57.5205 17.8277 58.1808 16.919 58.6344ZM13.4047 49.7852C13.3877 49.3672 13.5176 48.9564 13.7717 48.6253C14.0259 48.2942 14.3881 48.0641 14.7945 47.9757C14.9996 47.9211 15.2131 47.9077 15.423 47.9362C15.6329 47.9647 15.8355 48.0347 16.0187 48.142C16.2019 48.2493 16.3621 48.3918 16.4901 48.5615C16.6187 48.7312 16.7121 48.9247 16.7661 49.1308C17.121 50.8759 16.9287 52.5168 15.534 53.8157C14.9407 54.4016 14.2255 54.847 13.4393 55.1195C13.4211 55.0196 13.4096 54.9186 13.4047 54.8171C13.3999 53.1365 13.3902 51.4608 13.4047 49.7852Z" fill="#007933"/>
<path d="M68.9813 49.2993C68.9201 48.6759 68.7181 48.0748 68.3911 47.5418C68.0635 47.0087 67.62 46.5577 67.0935 46.2231C66.5669 45.8885 65.9718 45.6791 65.3524 45.6108C64.7337 45.5425 64.107 45.6172 63.521 45.8291C62.7402 46.1044 62.062 46.6144 61.5791 47.2901C61.0962 47.9658 60.8311 48.7745 60.8202 49.6067C60.7905 51.1534 60.8202 52.6952 60.8202 54.237C60.8202 55.8036 60.7808 57.3702 60.8202 58.9368C60.8269 59.6693 61.041 60.3846 61.4372 60.9992C61.8333 61.6137 62.3957 62.1021 63.0575 62.407C63.6987 62.7588 64.4249 62.9216 65.1541 62.8769C65.8826 62.8322 66.5839 62.5817 67.1778 62.1542C67.7705 61.7667 68.2509 61.2292 68.5719 60.5958C68.8928 59.9624 69.0426 59.2552 69.0062 58.5452C69.0062 55.6499 69.0062 52.7597 69.0062 49.8645C69.0068 49.6758 68.9989 49.4872 68.9813 49.2993ZM66.6652 58.912C66.6312 59.3609 66.425 59.7788 66.0901 60.0776C65.7552 60.3764 65.3184 60.5326 64.8714 60.5133C64.4321 60.5213 64.0081 60.3542 63.6914 60.0486C63.3748 59.743 63.191 59.3236 63.1807 58.8822C63.1412 57.6677 63.1807 56.4481 63.1807 55.2335V54.1875C63.1807 52.7002 63.1807 51.2129 63.1807 49.7554C63.1649 49.3829 63.2692 49.0151 63.4779 48.7069C63.6866 48.3986 63.9887 48.1665 64.3387 48.045C64.5838 47.9591 64.8447 47.9285 65.1031 47.9555C65.3609 47.9825 65.6102 48.0665 65.8323 48.2014C66.0543 48.3364 66.2442 48.519 66.388 48.7362C66.5323 48.9534 66.627 49.1998 66.6652 49.458C66.6785 49.6626 66.6785 49.868 66.6652 50.0727V58.5005C66.6652 58.6096 66.6652 58.7583 66.6652 58.912Z" fill="#007933"/>
<path d="M90.4048 49.215C90.3387 48.6525 90.1579 48.1099 89.8734 47.6212C89.5889 47.1325 89.2067 46.7083 88.7511 46.3754C88.2955 46.0425 87.7762 45.8079 87.2266 45.6866C86.6764 45.5653 86.1074 45.5597 85.5553 45.6704C84.6314 45.8411 83.7961 46.3306 83.1918 47.0545C82.5882 47.7785 82.2546 48.6916 82.2485 49.6364C82.2188 51.1782 82.2485 52.7249 82.2485 54.2667C82.2485 55.8333 82.2042 57.3999 82.2485 58.9665C82.2783 59.6512 82.4784 60.3175 82.8303 60.9042C83.1827 61.491 83.6759 61.9794 84.2644 62.3247C84.8528 62.6701 85.5183 62.8613 86.199 62.8809C86.8802 62.9005 87.5554 62.7478 88.1626 62.4368C88.8688 62.0918 89.459 61.5456 89.8594 60.866C90.2598 60.1865 90.4527 59.4035 90.4145 58.6145C90.4145 55.6995 90.4145 52.7844 90.4145 49.8743C90.4236 49.6546 90.4206 49.4344 90.4048 49.215ZM88.0935 58.3617C88.1008 58.6 88.0911 58.8386 88.0638 59.0756C87.9904 59.4974 87.7647 59.8771 87.4298 60.1416C87.095 60.4061 86.6752 60.5367 86.2505 60.5083C85.8392 60.5023 85.4443 60.3452 85.1404 60.0667C84.8358 59.7882 84.6435 59.4075 84.5993 58.9962C84.5895 58.8013 84.5895 58.6061 84.5993 58.4112V50.0726C84.5993 49.919 84.5993 49.7653 84.5993 49.6166C84.6272 49.1781 84.8164 48.7658 85.1295 48.4597C85.4431 48.1537 85.858 47.9758 86.2948 47.9607C86.7389 47.9574 87.1684 48.1214 87.4984 48.4205C87.8284 48.7196 88.0359 49.1321 88.0789 49.5769C88.0911 49.7949 88.0911 50.0134 88.0789 50.2313C88.0789 51.5731 88.0789 52.92 88.0789 54.2717C88.0789 55.6234 88.0838 56.9868 88.0935 58.3617Z" fill="#007933"/>
<path d="M71.8253 45.9629V46.8106C71.8253 50.6378 71.8253 54.47 71.8253 58.3022C71.8253 59.259 71.5638 60.0126 70.6623 60.4389C70.6278 60.4389 70.6077 60.5083 70.5634 60.5728C70.5932 61.2916 70.5192 62.06 70.6077 62.8334C70.8201 62.7987 70.9675 62.7888 71.1009 62.7491C71.9945 62.4967 72.7789 61.9515 73.3297 61.1998C73.8806 60.4482 74.1663 59.5331 74.1414 58.5996C74.1414 55.3128 74.1414 52.026 74.1414 48.7391C74.1414 48.5111 74.1414 48.283 74.1414 48.0748H77.3008V62.4913H79.5332C79.6661 61.7775 79.6412 46.4537 79.5332 45.9629H71.8253Z" fill="#007933"/>
<path d="M38.081 45.9827V53.3099C36.9029 53.3099 35.814 53.3099 34.6607 53.3099V45.9529C33.8527 45.9529 33.1083 45.9083 32.3889 45.9529V62.4665H34.6905V55.4615C35.8231 55.3345 36.9666 55.3495 38.0955 55.5061V62.4665H40.3826V45.9579C39.6158 45.9191 38.8472 45.9273 38.081 45.9827Z" fill="#007933"/>
<path d="M120.965 49.8C120.966 49.5599 120.955 49.32 120.931 49.0811C120.887 48.5193 120.72 47.9743 120.441 47.4854C120.163 46.9965 119.78 46.5758 119.32 46.2538C118.861 45.9318 118.336 45.7164 117.783 45.6232C117.231 45.53 116.664 45.5614 116.126 45.715C115.563 45.8346 115.035 46.0792 114.579 46.4308C114.123 46.7825 113.75 47.2324 113.489 47.7476L115.455 49.0811C115.561 48.8976 115.679 48.7205 115.805 48.5507C116.006 48.3058 116.27 48.1216 116.569 48.0183C116.867 47.9151 117.188 47.8969 117.495 47.9657C117.777 48.0153 118.034 48.1551 118.229 48.3642C118.425 48.5734 118.548 48.8405 118.58 49.1258C118.772 49.9735 118.748 50.7617 117.866 51.2723C117.444 51.5401 117.041 51.8349 116.658 52.1548C116.165 52.5266 115.673 52.8885 115.239 53.2901C114.418 53.99 113.769 54.8707 113.342 55.8637C112.915 56.8567 112.721 57.9354 112.775 59.016C112.771 59.8523 113.053 60.6644 113.574 61.3168C114.093 61.9691 114.821 62.4222 115.633 62.6003C116.183 62.7078 116.747 62.7262 117.304 62.6549C118.163 62.5847 118.976 62.233 119.617 61.6537C120.259 61.0743 120.695 60.2993 120.857 59.4474C120.939 59.066 120.982 58.6774 120.985 58.2873C120.97 55.4565 120.965 52.6258 120.965 49.8ZM118.629 56.5968V58.2972C118.632 58.7806 118.468 59.2499 118.166 59.6258C117.963 59.9248 117.668 60.1486 117.326 60.2631C116.984 60.3777 116.615 60.3768 116.274 60.2604C115.932 60.1467 115.634 59.9282 115.422 59.6357C115.21 59.3433 115.094 58.9914 115.091 58.6294C115.07 57.9069 115.24 57.1919 115.583 56.5571C116.254 55.283 117.333 54.4353 118.634 53.5826L118.629 56.5968Z" fill="#007933"/>
<path d="M108.304 52.6308C108.224 52.4747 108.188 52.299 108.202 52.1236C108.216 51.9482 108.279 51.7804 108.383 51.6392C109.487 49.9487 110.562 48.2384 111.646 46.533C111.745 46.3743 111.828 46.2058 111.961 45.9579C111.227 45.9579 110.586 45.9579 109.94 45.9579C109.783 45.9413 109.623 45.9737 109.484 46.0508C109.345 46.1279 109.232 46.246 109.162 46.3892C108.378 47.6633 107.565 48.9225 106.762 50.1916C106.654 50.3602 106.526 50.5238 106.407 50.6874L106.279 50.6477V45.9877H104.037C103.899 46.7412 103.928 62.0302 104.061 62.5012H106.304V53.9495H106.441C107.565 56.8083 108.691 59.6754 109.817 62.5508C110.286 62.5508 110.714 62.5508 111.148 62.5508H112.479C112.351 62.2335 112.267 62.0104 112.173 61.7973C110.887 58.7087 109.606 55.6648 108.304 52.6308Z" fill="#007933"/>
<path d="M53.6837 45.9629V62.4914H56.0005V48.0153H59.8987C59.9357 47.3234 59.9357 46.63 59.8987 45.9381C57.7943 45.953 55.7244 45.9133 53.6837 45.9629Z" fill="#007933"/>
<path d="M4.95788 72C7.1988 70.9948 9.50403 70.1403 11.8578 69.4419C14.1885 68.6933 16.5738 68.1281 18.9494 67.5283C21.3444 67.0325 23.7297 66.4723 26.1496 66.0856C27.3519 65.8724 28.5598 65.6543 29.767 65.461L33.4038 64.9652C34.6213 64.8066 35.8285 64.6033 37.046 64.4695L40.7029 64.0977C43.1325 63.82 45.5821 63.6961 48.0214 63.5127C50.4606 63.3292 52.9103 63.2648 55.355 63.1755L59.0264 63.0516H62.6929C67.5915 62.9971 72.4804 63.2053 77.3693 63.3639L84.6878 63.8597L87.4329 64.0381L88.3495 64.1274L91.9966 64.4992C101.74 65.3816 111.404 66.9334 121 68.733C111.296 67.6076 101.617 66.4128 91.888 65.7584C87.0337 65.342 82.1648 65.1685 77.3008 64.9058L68.1781 64.6777C67.5673 64.6777 66.9606 64.6777 66.3497 64.6777H59.0264L51.7273 64.8859L50.8155 64.9107L49.9037 64.9652L48.0857 65.0643C45.6561 65.2081 43.221 65.2874 40.8017 65.5304C38.3819 65.7733 35.9468 65.9072 33.5324 66.2096L29.9047 66.6161L26.2928 67.1119C23.8729 67.4093 21.4876 67.8802 19.0871 68.2868C16.6872 68.6933 14.3116 69.2584 11.9609 69.903L11.074 70.1161C10.778 70.1855 10.4825 70.2648 10.192 70.3541L8.43756 70.8498L7.55975 71.1027C7.26917 71.1869 6.98344 71.301 6.69286 71.3951L4.95788 72Z" fill="#007933"/>
<path d="M48.27 22.2738C45.9754 21.693 43.7175 20.9746 41.5083 20.1222L41.3703 20.0776C41.2639 20.0449 41.152 20.0337 41.0412 20.0446C40.9304 20.0556 40.8229 20.0885 40.7248 20.1415C40.6268 20.1945 40.5401 20.2666 40.4699 20.3534C40.3997 20.4403 40.3472 20.5404 40.3157 20.6477C40.2467 20.9452 40.3699 21.312 40.9416 21.4509C45.6728 22.6109 49.64 23.3942 53.08 23.4884C52.9633 23.3623 52.8578 23.2263 52.7645 23.0819C51.2501 22.9133 49.7486 22.6434 48.27 22.2738Z" fill="#007933"/>
<path d="M52.5378 22.4571C52.0943 22.3728 51.6458 22.2737 51.1924 22.1646C48.1696 21.3775 45.2473 20.2413 42.4841 18.7786C42.368 18.7189 42.2457 18.6724 42.1194 18.6398C42.034 18.604 41.9423 18.5854 41.8498 18.5853C41.7573 18.5851 41.6656 18.6032 41.58 18.6386C41.4944 18.6741 41.4166 18.7262 41.351 18.7918C41.2855 18.8575 41.2334 18.9356 41.1978 19.0215C41.1239 19.2843 41.2569 19.6263 41.73 19.7949C44.0069 20.603 48.7135 22.3034 52.6265 22.8487C52.5572 22.7307 52.5262 22.5937 52.5378 22.4571Z" fill="#007933"/>
<path d="M50.9213 23.5726C48.0272 23.3793 45.1559 22.928 42.3412 22.2242C41.799 22.0903 41.2569 21.9465 40.7247 21.8028C40.6275 21.7851 40.5277 21.7872 40.4313 21.8089C40.3349 21.8307 40.2438 21.8716 40.1634 21.9294C40.083 21.9872 40.0149 22.0606 39.9632 22.1453C39.9114 22.2299 39.8771 22.3242 39.8622 22.4225C39.8328 22.549 39.8307 22.6804 39.8561 22.8078C39.8815 22.9352 39.9339 23.0556 40.0096 23.1609C40.0853 23.2662 40.1826 23.3539 40.2949 23.4181C40.4072 23.4823 40.5319 23.5215 40.6606 23.5329C40.7559 23.5579 40.8532 23.5745 40.9514 23.5825C46.0226 24.113 49.1964 24.2865 51.907 24.2072C52.5378 24.2072 53.144 24.1526 53.7206 24.103C53.5488 23.956 53.3843 23.8005 53.2278 23.637C52.4738 23.642 51.7049 23.6172 50.9213 23.5726Z" fill="#007933"/>
<path d="M41.3704 24.0634L40.3009 23.9593C40.0923 23.9564 39.8907 24.0347 39.7383 24.178C39.5858 24.3212 39.4943 24.5182 39.4828 24.7277C39.4524 24.8654 39.4492 25.0078 39.4737 25.1467C39.4981 25.2857 39.5496 25.4184 39.6251 25.5372C39.7007 25.6561 39.7989 25.7588 39.914 25.8394C40.0291 25.9199 40.1589 25.9768 40.296 26.0067C40.4418 26.0378 40.5905 26.0527 40.7395 26.0514C46.1114 25.9572 50.7194 25.6349 54.4698 24.6732C54.2579 24.5294 54.0607 24.3856 53.8833 24.2468C49.5316 24.8516 44.8744 24.4005 41.3704 24.0634Z" fill="#007933"/>
<path d="M59.8318 26.2695C58.4091 25.9319 57.0777 25.2834 55.9321 24.3701C54.7865 23.4568 53.8549 22.301 53.2031 20.9848C53.1649 20.9245 53.1492 20.8524 53.1588 20.7815H53.1982C53.2645 20.8066 53.3274 20.84 53.3855 20.8807C55.4366 22.2591 57.7116 23.2658 60.1077 23.8552C61.1698 24.1162 62.2509 24.292 63.3407 24.3807C64.405 24.4739 65.4773 24.3902 66.5145 24.1328C66.5261 24.1333 66.5377 24.1309 66.5482 24.126C66.5588 24.1211 66.568 24.1138 66.5752 24.1046C66.5824 24.0954 66.5874 24.0846 66.5897 24.0732C66.592 24.0617 66.5915 24.0499 66.5884 24.0386C66.5867 24.0294 66.5831 24.0207 66.5779 24.0129C66.5727 24.0051 66.566 23.9984 66.5582 23.9933C66.5503 23.9883 66.5416 23.9848 66.5323 23.9832C66.5232 23.9816 66.5137 23.9819 66.5047 23.9841C65.7176 24.1099 64.9182 24.1382 64.1243 24.0684C62.7694 23.9656 61.4247 23.755 60.1028 23.4388C57.6069 22.8701 55.2736 21.7338 53.282 20.1172C52.7539 19.6953 52.3502 19.1366 52.114 18.5011C51.9711 18.0698 52.0352 17.9557 52.0549 17.9309C52.0684 17.9231 52.0837 17.919 52.0992 17.919C52.1148 17.919 52.1301 17.9231 52.1436 17.9309C52.193 17.9451 52.2385 17.9706 52.2766 18.0053C54.9141 20.5028 58.159 22.2571 61.6848 23.0918C62.1332 23.2008 62.5866 23.295 63.04 23.3793C64.1287 23.586 65.2427 23.6211 66.342 23.4834C66.3608 23.4809 66.3778 23.4713 66.3898 23.4566C66.4017 23.4418 66.4076 23.423 66.4061 23.4041C66.4055 23.3949 66.4031 23.386 66.399 23.3779C66.3949 23.3697 66.3894 23.3624 66.3824 23.3564C66.3756 23.3504 66.3676 23.3458 66.359 23.343C66.3503 23.3401 66.3412 23.3389 66.3321 23.3396C65.5069 23.374 64.6805 23.3158 63.868 23.1661C63.252 23.0521 62.6508 22.9232 62.0791 22.7843C57.9097 21.7631 54.6866 19.9239 52.2225 17.1625C51.8386 16.7345 51.572 16.2134 51.4487 15.6504C51.3698 15.1547 51.4832 15.0011 51.5325 14.9515C51.5507 14.9344 51.5727 14.9218 51.5967 14.9149C51.6207 14.908 51.646 14.9069 51.6705 14.9118C51.7316 14.9311 51.784 14.9715 51.8183 15.0258C53.1179 16.8602 54.7662 18.4171 56.6678 19.6066C58.6194 20.8316 60.7424 21.7557 62.9661 22.3481L63.3062 22.4373C64.2969 22.6863 65.3162 22.8013 66.3371 22.7794C66.3559 22.7781 66.3734 22.7698 66.3862 22.756C66.3991 22.7421 66.4062 22.724 66.4061 22.7051C66.4068 22.6955 66.4055 22.686 66.4023 22.677C66.3992 22.668 66.3942 22.6597 66.3877 22.6528C66.3812 22.6457 66.3734 22.6402 66.3647 22.6364C66.356 22.6326 66.3466 22.6307 66.3371 22.6307C65.6057 22.5932 64.8796 22.4853 64.1686 22.3085L63.8335 22.2192C61.3415 21.5564 58.9753 20.4844 56.8304 19.0464C54.8367 17.7228 53.1342 16.0017 51.8282 13.9897C51.4371 13.3439 51.1993 12.6161 51.1333 11.8629C51.1333 10.9805 51.3649 10.6384 51.5275 10.5145C51.5718 10.4786 51.6239 10.4536 51.6795 10.4415C51.7351 10.4295 51.7928 10.4307 51.8479 10.4451C52.0125 10.4955 52.1517 10.6072 52.2372 10.7574C55.3076 16.0966 59.3587 19.4133 64.282 20.6229C66.1303 21.0651 68.0351 21.2189 69.9298 21.079C69.9608 21.0739 69.9925 21.0739 70.0235 21.079C70.1221 21.1038 70.1615 21.2079 70.1368 21.3814C70.0333 22.0506 69.0822 23.4189 67.6727 24.5641C66.0947 25.9183 64.0735 26.6355 62.0002 26.5769C61.27 26.5363 60.5446 26.4334 59.8318 26.2695Z" fill="#007933"/>
<path d="M73.286 15.9231C73.1579 15.8934 73.286 15.6356 73.1825 15.6059C73.1189 15.6411 73.0632 15.6892 73.0191 15.7473C72.975 15.8053 72.9434 15.872 72.9263 15.9429C72.9104 16.0081 72.9074 16.0757 72.9176 16.1419C72.9277 16.2082 72.9507 16.2718 72.9853 16.3291C73.0198 16.3864 73.0652 16.4363 73.119 16.476C73.1727 16.5156 73.2336 16.5443 73.2984 16.5602C73.3631 16.5761 73.4303 16.5791 73.4962 16.5689C73.562 16.5588 73.6252 16.5356 73.6822 16.5009C73.7392 16.4661 73.7888 16.4204 73.8282 16.3664C73.8676 16.3123 73.8961 16.251 73.9119 16.1859C73.9217 16.1252 73.9217 16.0632 73.9119 16.0025C73.9119 15.7893 73.4881 15.9777 73.286 15.9231Z" fill="#007933"/>
<path d="M66.9137 0.554747C61.9221 -0.669401 56.6515 0.150622 52.2608 2.83453C47.8701 5.51844 44.7186 9.8465 43.4993 14.8672C43.219 16.0323 43.0425 17.2201 42.972 18.4168C43.9183 18.9125 44.8349 19.329 45.7318 19.7156C45.5869 15.3887 47.0288 11.1592 49.7832 7.83255C52.5376 4.5059 56.4121 2.31443 60.6688 1.67544C64.9256 1.03646 69.2672 1.9946 72.8672 4.36741C76.4671 6.74019 79.0737 10.362 80.1908 14.543C81.3079 18.724 80.8573 23.1723 78.9249 27.0408C76.9926 30.9093 73.7134 33.9278 69.7117 35.5215C65.7101 37.1153 61.2655 37.1729 57.2243 35.6834C53.1832 34.1941 49.8277 31.2616 47.7968 27.4445C47.6884 27.2362 51.9563 26.5818 54.1247 27.0082C56.2932 27.4345 58.3631 28.4954 60.5808 28.9317C63.4328 29.5158 66.3932 29.2292 69.0822 28.1088C70.0692 27.6595 70.9555 27.0137 71.6873 26.2101C72.4192 25.4066 72.9815 24.4621 73.3402 23.4338C74.2421 20.5634 73.6655 20.0081 74.9321 18.1392C75.5826 17.1179 77.2287 16.5279 77.8595 16.3296C78.0221 16.285 77.9334 16.2305 77.8595 16.2156C76.933 16.0818 75.9867 15.9132 75.3609 15.8686C75.2278 15.8686 75.2623 15.8091 75.3017 15.7645C75.6664 15.3927 77.0414 14.0541 77.5145 13.603C77.6131 13.5088 77.5638 13.4592 77.4702 13.4691C76.9478 13.5385 75.7157 13.8261 75.4988 13.8757C75.0815 13.98 74.641 13.9362 74.252 13.7517C73.4731 13.314 72.5842 13.1141 71.6942 13.1766C69.1561 13.4642 68.8013 15.6257 67.9832 16.8601C67.5563 17.3728 67.0699 17.8322 66.5343 18.2284C68.752 18.8977 70.2255 18.8035 71.2408 18.4565C71.2604 18.4587 71.2803 18.4587 71.2999 18.4565L71.3985 18.4118C71.7616 18.2703 72.1033 18.0784 72.4137 17.8417C72.7101 17.6289 72.9784 17.379 73.2121 17.098C73.3402 16.9394 73.2121 16.9394 73.2121 16.9295C72.9964 16.8927 72.8041 16.7712 72.6775 16.5918C72.5509 16.4124 72.5003 16.1896 72.5369 15.9727C72.5735 15.7558 72.6943 15.5624 72.8727 15.435C73.051 15.3076 73.2724 15.2567 73.4881 15.2935C73.6192 15.3086 73.7455 15.3526 73.8577 15.4224C73.9464 15.4819 73.976 15.4224 74.0006 15.3927C74.1638 15.0206 74.408 14.6902 74.7152 14.4259C75.1942 14.2649 75.6905 14.1617 76.1937 14.1186C76.2381 14.1186 76.2677 14.1186 76.1937 14.188C75.5869 14.7237 75.034 15.3182 74.5428 15.9628C74.5082 16.0124 74.4688 16.1412 74.6364 16.1512C74.8039 16.1611 75.9867 16.3247 76.4894 16.3792C76.6077 16.3792 76.5239 16.4883 76.4894 16.5131C76.049 16.6795 75.6303 16.8993 75.2426 17.1674C75.2426 17.1674 74.183 17.7971 73.6359 19.9338C73.0889 22.0705 73.3501 24.7823 69.5454 26.9884C66.3815 28.8375 62.0199 28.7533 58.925 27.3899C54.6718 25.511 54.7851 25.511 44.3027 26.681C45.529 29.7894 47.5296 32.5282 50.1123 34.634C52.695 36.7399 55.7728 38.1418 59.0498 38.7052C62.3268 39.2686 65.6928 38.9744 68.8241 37.851C71.9554 36.7275 74.7468 34.8125 76.9297 32.2903C79.1126 29.768 80.6138 26.7231 81.2888 23.4485C81.9638 20.1739 81.7899 16.7797 80.7839 13.5922C79.7779 10.4047 77.9737 7.53123 75.5446 5.24799C73.1155 2.96472 70.1432 1.34851 66.9137 0.554747Z" fill="#007933"/>
<path d="M59.9007 15.3629C61.4169 16.8431 63.1611 18.0669 65.0656 18.9869L65.2873 19.096C65.6866 18.8283 66.1005 18.5358 66.5244 18.2086C64.1254 17.2823 62.0205 15.7199 60.4329 13.6873C59.1606 12.0345 58.1712 10.1796 57.5056 8.19931C57.4821 8.12432 57.4414 8.05596 57.3865 7.99991C57.3317 7.94386 57.2644 7.90176 57.1902 7.87709C56.8945 7.8027 56.6185 8.17452 56.4509 8.86856C56.3811 9.46098 56.4555 10.0616 56.6677 10.6186C57.4065 12.4086 58.5075 14.0243 59.9007 15.3629Z" fill="#007933"/>
<path d="M56.4657 11.4366C56.4566 11.4094 56.441 11.3849 56.4204 11.365C56.3998 11.3452 56.3748 11.3306 56.3474 11.3226C56.3313 11.3146 56.3136 11.3106 56.2957 11.3106C56.2777 11.3106 56.2601 11.3146 56.2439 11.3226C56.1996 11.3573 56.0961 11.4713 56.0862 11.8183C56.0926 12.2742 56.222 12.7197 56.4608 13.1073C57.3964 14.6536 58.6235 16.0009 60.0732 17.0733C61.4546 18.0867 62.9583 18.9196 64.5481 19.552L65.0114 19.2596C64.7798 19.1654 64.5531 19.0613 64.3313 18.9522C60.571 17.1179 57.8555 14.5103 56.4657 11.4366Z" fill="#007933"/>
<path d="M56.3327 13.8062C56.3065 13.765 56.2661 13.735 56.2193 13.7219C56.1898 13.7219 56.1799 13.7219 56.1749 13.7219C56.17 13.7219 56.0961 13.8211 56.1405 14.1582C56.2266 14.6913 56.4626 15.1884 56.8206 15.5909C58.4518 17.5739 60.7139 19.0315 63.7202 20.0527L64.213 19.7652C61.0696 18.5855 58.3327 16.5159 56.3327 13.8062Z" fill="#007933"/>
</svg>
