<svg width="84" height="56" viewBox="0 0 84 56" fill="none" xmlns="http://www.w3.org/2000/svg">
<path d="M52.7438 55.4877L46.5256 45.2L40.4361 55.4877H33.1459L42.5117 39.9922L32.9658 25.6064H40.582L46.6971 35.2112L52.5294 25.6064H59.8196L50.4281 40.4617L60.0769 55.4877H52.7438Z" fill="black"/>
<path d="M83.7739 45.328C83.7739 51.902 78.7994 56 72.281 56C66.5347 56 61.6952 52.8412 61.2256 45.9684H67.4438C67.8726 48.9566 70.2741 50.2372 72.8901 50.2372C76.1492 50.2372 77.5558 48.0601 77.5558 45.2428C77.5558 42.2973 75.3687 40.4617 72.3239 40.4617C69.7938 40.4617 68.1214 41.657 67.3494 42.9376H61.4058L63.4599 25.6064H83.0084L82.3566 31.412H68.3743L67.819 37.147C67.819 37.147 69.2878 35.4246 73.7392 35.4246C79.0997 35.4246 83.7739 39.0104 83.7739 45.328Z" fill="black"/>
<path d="M61.9607 21.8838C58.6478 9.03058 48.1392 0 26.3307 0H0L3.57436 24.0588C6.26318 45.7676 14.6041 52.7513 29.3647 55.3232C29.4333 55.3339 29.9007 55.4001 29.9071 54.8558C29.9093 54.6594 29.7849 54.4907 29.6134 54.4182C19.6364 50.2369 18.4979 36.5236 16.3666 22.7632L14.7177 11.7967H29.7485C43.6064 11.7967 54.3059 11.579 61.0815 22.2275C61.1823 22.3769 61.3389 22.4879 61.5253 22.4879C61.7869 22.4879 61.9821 22.2766 61.9821 22.0162C61.9778 21.9692 61.9714 21.9244 61.9607 21.8838Z" fill="#5FAF2D"/>
</svg>
