<svg width="113" height="32" viewBox="0 0 113 32" fill="none" xmlns="http://www.w3.org/2000/svg">
<path d="M24.1052 31.9733L10.2291 17.1031L10.2869 31.9499L0.0479328 31.967L0 0.172122L10.1444 0.156554L10.1591 14.0232L18.4237 0.087884L29.7276 0.121771L20.9772 14.731L38.0725 31.9597L24.1052 31.9733Z" fill="#C4161D"/>
<path d="M50.3705 8.43588L42.3485 8.40678L42.324 23.4689H50.9528C58.2579 23.4512 61.6166 22.0776 61.4378 15.685C61.2437 9.98526 56.8325 8.32886 50.3705 8.43588ZM54.9641 31.9304L41.8568 32L32.368 22.2085L32.3425 0.121505L54.9215 0.0929673C64.2467 0.0720496 71.8223 7.22234 71.8342 16.0067C71.8469 24.7864 64.2946 31.9154 54.9641 31.9304Z" fill="#C4161D"/>
<path d="M95.8763 31.8744L85.757 31.889L68.5326 0.0721591L79.306 0.0503511L90.7653 22.5937L102.369 0.0227829L113 0L95.8763 31.8744Z" fill="#C4161D"/>
</svg>
