<svg width="42" height="66" viewBox="0 0 42 66" fill="none" xmlns="http://www.w3.org/2000/svg">
<path d="M1 18.702H30.9574M1 18.702L6.44681 10.5317M1 18.702V34.3616M30.9574 18.702V64.9999M30.9574 18.702L36.4043 10.5317L40.7282 18.0211V64.9999H30.9574M30.9574 64.9999H1V47.2978M1 34.3616H19.4255C20.5301 34.3616 21.4255 35.257 21.4255 36.3616V45.2978C21.4255 46.4023 20.5301 47.2978 19.4255 47.2978H1M1 34.3616V47.2978" stroke="#579D73" stroke-width="2"/>
<path d="M6.44629 3C6.44629 1.89543 7.34172 1 8.44629 1H34.4037C35.5083 1 36.4037 1.89543 36.4037 3V10.5319H6.44629V3Z" stroke="#579D73" stroke-width="2"/>
</svg>
