<svg width="192" height="40" viewBox="0 0 192 40" fill="none" xmlns="http://www.w3.org/2000/svg">
<path d="M101.232 24.8838L105.029 21.1912L105.978 20.2564C106.29 19.9543 106.482 19.5526 106.519 19.1238C106.52 18.8926 106.47 18.664 106.373 18.4533C106.277 18.2426 106.135 18.0546 105.958 17.902C105.603 17.567 105.127 17.3842 104.634 17.3938C104.121 17.3938 103.434 17.8296 102.575 18.701L97.7975 23.5417V20.0043C97.7975 18.2588 97.1718 17.3861 95.9204 17.3861C94.6676 17.3861 94.0432 18.2549 94.0432 20.0004V31.3575C94.0432 33.0978 94.6755 33.9679 95.9401 33.9679C97.2047 33.9679 97.8304 33.0978 97.8173 31.3575V27.5563L98.4733 27.0249L103.449 32.6879C104.203 33.5452 104.879 33.9718 105.484 33.9718C105.71 33.9697 105.934 33.9229 106.142 33.8343C106.35 33.7457 106.537 33.617 106.693 33.4559C106.859 33.3048 106.992 33.1218 107.083 32.9183C107.174 32.7148 107.222 32.4952 107.223 32.2729C107.223 31.7557 106.909 31.1519 106.282 30.4615L101.232 24.8838ZM119.624 17.3667C119.393 17.3584 119.163 17.4024 118.952 17.4952C118.741 17.588 118.554 17.7272 118.407 17.902C118.13 18.2647 117.917 18.6696 117.774 19.1005L114.802 26.8232H114.712L111.479 18.9648C111.039 17.8994 110.466 17.3654 109.76 17.3628C109.517 17.3499 109.274 17.389 109.048 17.4774C108.822 17.5658 108.619 17.7014 108.452 17.8748C108.117 18.2467 107.945 18.7331 107.974 19.2285C107.97 19.5863 108.04 19.9411 108.179 20.2719L112.838 31.598L111.783 34.1968C111.639 34.533 111.566 34.8947 111.57 35.2596C111.57 36.4284 112.128 37.0128 113.245 37.0128C113.677 37.0376 114.101 36.8987 114.431 36.6249C114.719 36.2989 114.941 35.9226 115.087 35.5156L121.102 20.3883C121.266 19.9848 121.352 19.5545 121.355 19.1199C121.367 17.9408 120.782 17.3667 119.624 17.3667ZM50.7385 10.2181C54.5165 7.64642 54.394 3.54266 50.0509 3.04229C47.2174 3.10823 39.4085 12.8518 37.1124 14.6515V7.98C37.6143 1.36277 29.5209 1.35889 30.0228 7.98V29.4104C29.5169 36.0276 37.6104 36.0315 37.1124 29.4104V22.2346L38.3494 21.2339C41.1631 23.2469 49.8098 38.1066 53.8724 33.3706C58.2985 29.9999 45.2138 20.109 43.5975 17.1883L50.7385 10.2181ZM65.4474 33.0331C76.0464 38.4402 90.0004 28.4445 87.9731 16.8857C82.6065 24.6782 74.4379 30.6128 65.4474 33.0331ZM129.824 22.7854H127.29V21.0322H132.033C133.827 21.0322 134.724 20.462 134.724 19.3216C134.724 18.1812 133.827 17.6046 132.033 17.5917H126.136C125.152 17.5917 124.477 17.7817 124.101 18.1696C123.726 18.5575 123.532 19.2285 123.532 20.1866V31.1985C123.532 32.1604 123.722 32.8315 124.101 33.2193C124.481 33.6072 125.152 33.7934 126.136 33.7934H129.531C131.341 33.7934 132.79 33.3279 133.878 32.397C135.008 31.4079 135.577 30.0348 135.577 28.2894C135.577 26.5439 135.064 25.1863 134.048 24.2166C133.032 23.2469 131.618 22.7854 129.824 22.7854ZM128.919 30.3994H127.29V26.1328H128.919C130.634 26.1328 131.493 26.8503 131.495 28.2855C131.507 29.7013 130.634 30.3994 128.919 30.3994ZM177.226 22.7854H174.693V20.0043C174.693 18.2588 174.065 17.3822 172.816 17.3822C171.567 17.3822 170.939 18.2588 170.939 20.0043V31.1985C170.939 32.1604 171.125 32.8315 171.504 33.2193C171.883 33.6072 172.559 33.7934 173.539 33.7934H176.954C178.76 33.7934 180.21 33.3279 181.301 32.397C182.431 31.4079 183 30.0348 183 28.2894C183 26.5439 182.486 25.1863 181.471 24.2166C180.455 23.2469 179.02 22.7854 177.226 22.7854ZM176.321 30.3994H174.693V26.1328H176.321C178.042 26.1328 178.901 26.8503 178.898 28.2855C178.895 29.7207 178.036 30.4253 176.321 30.3994ZM145.892 19.4961C145.378 18.0765 144.456 17.3667 143.126 17.3667C141.795 17.3667 140.837 18.1657 140.253 19.7638L135.949 31.183C135.827 31.5231 135.767 31.8814 135.771 32.2419C135.758 32.4718 135.794 32.702 135.876 32.9177C135.958 33.1334 136.085 33.3299 136.249 33.4947C136.422 33.6568 136.627 33.7825 136.851 33.8639C137.076 33.9452 137.315 33.9807 137.553 33.9679C138.399 33.9679 139.002 33.4314 139.363 32.3582L140.043 30.3296H145.88L146.493 32.2264C146.864 33.39 147.532 33.9679 148.468 33.9679C148.95 33.9789 149.418 33.8129 149.781 33.5025C149.958 33.3519 150.099 33.1644 150.193 32.9538C150.287 32.7431 150.333 32.5145 150.326 32.2845C150.296 31.8853 150.204 31.4928 150.053 31.1209L145.892 19.4961ZM141.13 27.0714L143.007 21.3851H143.05L144.86 27.0714H141.13ZM165.217 17.3744C163.968 17.3744 163.339 18.2511 163.339 19.9965V23.8132H156.404V20.0043C156.404 18.2588 155.776 17.3822 154.527 17.3822C153.278 17.3822 152.646 18.2549 152.646 20.0004V31.3575C152.646 33.1004 153.273 33.9718 154.527 33.9718C155.776 33.9718 156.404 33.0991 156.404 31.3536V27.2266H163.324V31.3536C163.324 33.0991 163.952 33.9718 165.201 33.9718C166.45 33.9718 167.078 33.0991 167.078 31.3575V20.0043C167.094 18.2627 166.465 17.39 165.217 17.39V17.3744Z" fill="#73BC25"/>
<path d="M71.6818 3.01563H71.6381C68.6581 3.01294 65.736 3.81109 63.1986 5.32084C60.6611 6.83058 58.6084 8.99241 57.2699 11.5646C55.9315 14.1368 55.36 17.018 55.6193 19.886C55.8787 22.754 56.9587 25.4958 58.7387 27.8048C60.3948 20.2809 64.1916 13.6511 73.5643 11.092C65.3195 17.4456 62.4759 24.5474 62.3488 30.9586C69.6047 28.7371 80.8401 19.7476 84.5217 9.27334C83.0334 7.3367 81.0977 5.7625 78.8686 4.67611C76.6394 3.58971 74.1785 3.02113 71.6818 3.01563ZM0.917508 9.80665C4.78178 12.7571 13.8805 4.71531 16.5811 15.2702C14.0116 15.8073 4.57129 13.4976 4.9605 18.0134C4.53158 22.7786 13.8924 20.3692 16.5811 20.9255C13.7614 33.1762 3.95571 23.8683 0.480642 27.0374C-3.37569 36.4182 17.1411 35.367 20.4136 29.6157C25.6481 24.298 25.6759 12.8914 20.2826 7.53147C16.875 1.60755 -2.99443 0.721266 0.917508 9.80665ZM180.132 4.99922H96.055C95.0297 5.00024 94.0468 5.3944 93.3223 6.09511C92.5977 6.79582 92.1907 7.74576 92.1907 8.7362V11.4986C92.1907 12.4891 92.5977 13.439 93.3223 14.1397C94.0468 14.8404 95.0297 15.2346 96.055 15.2356H180.132C181.157 15.2346 182.141 14.8406 182.866 14.14C183.591 13.4394 183.999 12.4894 184 11.4986V8.7362C183.999 7.7454 183.591 6.79548 182.866 6.09488C182.141 5.39428 181.157 5.00024 180.132 4.99922ZM102.004 12.2698C101.718 12.5727 101.367 12.8111 100.975 12.9682C100.583 13.1254 100.16 13.1974 99.7365 13.1791C99.4691 13.1837 99.2022 13.1554 98.9422 13.0947C98.6715 13.0397 98.4141 12.9356 98.1837 12.7878C98.0687 12.7239 97.9721 12.6332 97.9027 12.5239C97.8333 12.4147 97.7934 12.2904 97.7865 12.1624C97.785 12.0071 97.843 11.8568 97.9494 11.7404C97.9976 11.6835 98.0581 11.6375 98.1268 11.6057C98.1954 11.5738 98.2704 11.557 98.3465 11.5562C98.5435 11.5775 98.7362 11.6266 98.9184 11.702C99.1603 11.7943 99.417 11.845 99.677 11.8516C100.071 11.8607 100.453 11.7234 100.745 11.468C101.028 11.2083 101.202 10.8574 101.234 10.4819H99.5459C99.0931 10.4819 98.8628 10.2862 98.8628 9.88722C98.8628 9.4882 99.0931 9.32322 99.5578 9.32322H101.238C101.22 9.15561 101.166 8.99345 101.08 8.84688C100.993 8.70031 100.877 8.57251 100.737 8.47147C100.444 8.26105 100.086 8.15043 99.7206 8.15685C99.479 8.15347 99.239 8.19516 99.0137 8.27963C98.8395 8.3543 98.6521 8.39598 98.4617 8.4024C98.3801 8.40356 98.2991 8.38771 98.2244 8.35593C98.1497 8.32415 98.083 8.27719 98.0288 8.21824C97.916 8.10204 97.8547 7.94781 97.858 7.78853C97.8617 7.65675 97.9106 7.52989 97.997 7.42787C98.3147 7.0442 98.8906 6.82934 99.7326 6.82934C100.156 6.81315 100.578 6.88766 100.968 7.04752C101.358 7.20739 101.706 7.44865 101.988 7.754C102.552 8.37674 102.849 9.18341 102.818 10.01C102.854 10.8358 102.563 11.6438 102.004 12.2698ZM113.78 12.9796C113.72 13.0419 113.647 13.0918 113.567 13.1261C113.486 13.1604 113.399 13.1784 113.311 13.1791C113.151 13.1538 112.998 13.0972 112.862 13.0127C112.725 12.9283 112.608 12.8178 112.517 12.688L110.583 10.5164L110.329 10.7236V12.1816C110.329 12.8453 110.086 13.1791 109.598 13.1791C109.109 13.1791 108.867 12.8453 108.867 12.1777V7.85375C108.867 7.18232 109.109 6.84853 109.598 6.84853C110.086 6.84853 110.329 7.18232 110.329 7.85375V9.20428L112.191 7.3473C112.529 7.01734 112.791 6.84853 112.985 6.84853C113.172 6.85043 113.351 6.92032 113.486 7.0442C113.555 7.1022 113.611 7.17412 113.649 7.25496C113.686 7.3358 113.705 7.42361 113.704 7.51228C113.69 7.67643 113.615 7.83019 113.494 7.94583C113.494 7.94583 113.367 8.07245 113.124 8.29881L111.651 9.7184L113.613 11.8555C113.814 12.0379 113.943 12.282 113.978 12.5461C113.978 12.6276 113.96 12.7082 113.926 12.7828C113.892 12.8574 113.842 12.9244 113.78 12.9796ZM124.213 12.596C123.883 13.0295 123.26 13.252 122.334 13.252C121.901 13.2711 121.469 13.1967 121.069 13.0341C120.669 12.8715 120.312 12.6248 120.023 12.312C119.454 11.6738 119.156 10.8515 119.189 10.01C119.164 9.16617 119.468 8.34412 120.043 7.70796C120.33 7.39322 120.686 7.1437 121.085 6.97723C121.484 6.81075 121.916 6.73144 122.35 6.74494C122.68 6.7456 123.008 6.79212 123.323 6.88306C123.633 6.96187 123.91 7.1306 124.118 7.36649C124.213 7.47322 124.265 7.60938 124.265 7.75016C124.262 7.91464 124.195 8.07212 124.078 8.19138C124.023 8.25093 123.956 8.2985 123.88 8.33092C123.805 8.36334 123.724 8.37986 123.641 8.37938C123.443 8.3695 123.248 8.32667 123.065 8.25277C122.835 8.1654 122.59 8.12113 122.342 8.12232C122.102 8.11324 121.864 8.16472 121.651 8.2717C121.438 8.37867 121.257 8.53744 121.127 8.73236C120.869 9.13336 120.742 9.59979 120.762 10.0714C120.742 10.533 120.882 10.9877 121.159 11.3644C121.302 11.548 121.489 11.6949 121.704 11.792C121.92 11.889 122.157 11.9332 122.394 11.9207C122.666 11.9156 122.934 11.865 123.188 11.7711C123.373 11.6926 123.568 11.6396 123.768 11.6137C123.848 11.6147 123.927 11.6327 123.999 11.6665C124.071 11.7004 124.135 11.7492 124.185 11.8094C124.297 11.9247 124.358 12.0773 124.356 12.2353C124.351 12.3722 124.301 12.5041 124.213 12.6113V12.596ZM136.008 12.1624C136.008 12.83 135.766 13.16 135.278 13.16C134.789 13.16 134.551 12.83 134.551 12.1624V8.15685H131.854V12.1777C131.854 12.8453 131.612 13.1753 131.123 13.1753C130.635 13.1753 130.393 12.8453 130.393 12.1777V7.90363C130.393 7.23604 130.726 6.90224 131.397 6.90224H135.004C135.675 6.90224 136.008 7.23604 136.008 7.90363V12.1624ZM146.517 10.5548C146.295 10.7468 146.037 10.8944 145.756 10.9892C145.475 11.0841 145.178 11.1242 144.881 11.1073H143.896V12.1662C143.896 12.83 143.649 13.1638 143.161 13.1638C142.673 13.1638 142.438 12.8415 142.438 12.1777V7.89596C142.411 7.62239 142.491 7.34893 142.661 7.12861C142.886 6.95782 143.17 6.87804 143.455 6.90608H144.777C145.391 6.87789 145.993 7.06914 146.469 7.44322C146.688 7.64274 146.859 7.8857 146.97 8.1553C147.082 8.42491 147.132 8.71474 147.117 9.00477C147.135 9.2917 147.092 9.57926 146.989 9.84889C146.885 10.1185 146.725 10.3642 146.517 10.5702V10.5548ZM155.89 13.0947H154.178C153.906 13.1222 153.633 13.0586 153.404 12.9144C153.319 12.8161 153.256 12.7021 153.218 12.5794C153.181 12.4566 153.169 12.3278 153.185 12.2008V7.90363C153.161 7.63089 153.239 7.35884 153.404 7.13628C153.629 6.96758 153.914 6.88927 154.198 6.91759H155.846C156.537 6.91759 156.887 7.13628 156.887 7.58518C156.887 8.03408 156.537 8.23743 155.846 8.23743H154.655V9.3424H155.679C156.374 9.3424 156.72 9.5611 156.72 9.99465C156.72 10.4282 156.374 10.6431 155.679 10.6431H154.655V11.8248H155.894C156.589 11.8248 156.93 12.0435 156.93 12.477C156.93 12.9106 156.585 13.1101 155.89 13.1101V13.0947ZM167.721 12.596C167.391 13.0295 166.768 13.252 165.838 13.252C165.405 13.2703 164.973 13.1955 164.573 13.0329C164.174 12.8704 163.816 12.6242 163.527 12.312C162.961 11.6728 162.666 10.8505 162.701 10.01C162.672 9.16638 162.976 8.34371 163.551 7.70796C163.839 7.39099 164.197 7.13984 164.598 6.97264C164.999 6.80544 165.433 6.72636 165.87 6.7411C166.198 6.74149 166.525 6.78802 166.839 6.87922C167.149 6.9578 167.426 7.12658 167.633 7.36265C167.728 7.46938 167.781 7.60555 167.78 7.74632C167.778 7.9108 167.711 8.06828 167.594 8.18755C167.538 8.24739 167.47 8.29512 167.394 8.32754C167.318 8.35996 167.236 8.37633 167.153 8.37555C166.956 8.36523 166.763 8.3224 166.581 8.24894C166.351 8.16236 166.105 8.11812 165.858 8.11849C165.618 8.1094 165.38 8.16089 165.167 8.26786C164.954 8.37483 164.773 8.5336 164.643 8.72853C164.387 9.13026 164.26 9.59616 164.277 10.0675C164.256 10.5294 164.396 10.9848 164.675 11.3605C164.817 11.5442 165.005 11.6911 165.22 11.7881C165.436 11.8852 165.672 11.9294 165.91 11.9169C166.182 11.9118 166.45 11.8611 166.704 11.7672C166.888 11.6894 167.081 11.6364 167.28 11.6099C167.361 11.6103 167.44 11.628 167.513 11.6619C167.586 11.6957 167.65 11.7448 167.701 11.8056C167.813 11.9208 167.874 12.0735 167.872 12.2315C167.866 12.3706 167.813 12.504 167.721 12.6113V12.596ZM178.603 12.596C178.273 13.0295 177.646 13.252 176.72 13.252C176.286 13.2703 175.854 13.1955 175.453 13.033C175.053 12.8705 174.695 12.6242 174.405 12.312C173.839 11.6725 173.543 10.8508 173.575 10.01C173.551 9.16647 173.856 8.34508 174.429 7.70796C174.716 7.39301 175.072 7.14335 175.471 6.97686C175.87 6.81036 176.302 6.73117 176.736 6.74494C177.063 6.74504 177.388 6.79158 177.701 6.88306C178.019 6.95893 178.305 7.12777 178.519 7.36649C178.612 7.47443 178.662 7.6101 178.662 7.75016C178.663 7.91457 178.598 8.07281 178.48 8.19138C178.424 8.25065 178.356 8.29799 178.28 8.33037C178.204 8.36274 178.122 8.37944 178.039 8.37938C177.841 8.36497 177.647 8.31692 177.467 8.23743C177.236 8.15085 176.991 8.10661 176.744 8.10698C176.504 8.09712 176.265 8.14827 176.052 8.25531C175.839 8.36236 175.658 8.52155 175.529 8.71702C175.27 9.11758 175.141 9.58404 175.159 10.056C175.14 10.5176 175.28 10.9724 175.557 11.349C175.7 11.5322 175.887 11.6787 176.102 11.7757C176.318 11.8727 176.554 11.9172 176.792 11.9053C177.063 11.9006 177.332 11.8499 177.586 11.7557C177.772 11.677 177.969 11.6241 178.17 11.5984C178.25 11.5993 178.329 11.6174 178.401 11.6512C178.473 11.685 178.537 11.7338 178.587 11.7941C178.697 11.9102 178.758 12.0623 178.758 12.22C178.752 12.3633 178.697 12.5007 178.603 12.6113V12.596ZM144.527 8.19138H143.896V9.822H144.527C145.198 9.822 145.528 9.54575 145.528 9.00094C145.528 8.45612 145.218 8.20673 144.527 8.20673V8.19138Z" fill="white"/>
</svg>
