<svg width="28" height="66" viewBox="0 0 28 66" fill="none" xmlns="http://www.w3.org/2000/svg">
<path d="M26.1429 39.2855V29.8315C26.1429 28.9232 25.8337 28.042 25.2663 27.3327L22.448 23.8097C21.8806 23.1005 21.5714 22.2192 21.5714 21.311V7.85693H5.57143V21.311C5.57143 22.2192 5.26231 23.1005 4.6949 23.8097L1.87652 27.3327C1.30912 28.042 1 28.9232 1 29.8315V60.9998C1 63.2089 2.79086 64.9998 5 64.9998H22.1429C24.352 64.9998 26.1429 63.2089 26.1429 60.9998V52.4284M26.1429 39.2855H14.4286C13.324 39.2855 12.4286 40.1809 12.4286 41.2855V50.4284C12.4286 51.5329 13.324 52.4284 14.4286 52.4284H26.1429M26.1429 39.2855V52.4284" stroke="#A18ADC" stroke-width="2"/>
<rect x="3.28613" y="1" width="20.5714" height="6.85714" rx="2" stroke="#A18ADC" stroke-width="2"/>
</svg>
