<svg width="212" height="40" viewBox="0 0 212 40" fill="none" xmlns="http://www.w3.org/2000/svg">
<g clip-path="url(#clip0_520_30)">
<path d="M114.096 25.7472L118.412 21.3997L119.49 20.2991C119.845 19.9435 120.063 19.4705 120.105 18.9656C120.106 18.6935 120.049 18.4243 119.939 18.1762C119.829 17.9281 119.668 17.7068 119.467 17.5271C119.064 17.1327 118.523 16.9175 117.963 16.9289C117.379 16.9289 116.599 17.4419 115.623 18.4679L110.193 24.1671V20.0023C110.193 17.9473 109.482 16.9197 108.06 16.9197C106.636 16.9197 105.926 17.9427 105.926 19.9977V33.3691C105.926 35.418 106.645 36.4425 108.082 36.4425C109.519 36.4425 110.23 35.418 110.215 33.3691V28.8937L110.961 28.2681L116.615 34.9355C117.473 35.9447 118.241 36.4471 118.928 36.4471C119.186 36.4446 119.44 36.3895 119.676 36.2852C119.912 36.1808 120.125 36.0294 120.303 35.8397C120.491 35.6617 120.642 35.4463 120.746 35.2067C120.849 34.9671 120.903 34.7085 120.905 34.4469C120.905 33.838 120.548 33.1271 119.836 32.3142L114.096 25.7472ZM134.998 16.8969C134.735 16.8872 134.474 16.939 134.234 17.0483C133.994 17.1575 133.782 17.3214 133.615 17.5271C133.301 17.9542 133.058 18.4309 132.896 18.9382L129.519 28.0306H129.415L125.742 18.7784C125.242 17.5241 124.59 16.8954 123.788 16.8923C123.512 16.8771 123.236 16.9231 122.979 17.0272C122.723 17.1313 122.491 17.291 122.301 17.4951C121.921 17.933 121.726 18.5057 121.758 19.0889C121.754 19.5102 121.834 19.9279 121.991 20.3174L127.287 33.6522L126.087 36.712C125.923 37.1078 125.841 37.5337 125.845 37.9632C125.845 39.3393 126.48 40.0274 127.749 40.0274C128.239 40.0566 128.722 39.8931 129.097 39.5707C129.424 39.1869 129.677 38.7438 129.842 38.2646L136.678 20.4544C136.865 19.9794 136.962 19.4728 136.965 18.9611C136.979 17.5728 136.314 16.8969 134.998 16.8969ZM56.7115 8.48042C61.0051 5.45268 60.8659 0.621077 55.93 0.0319687C52.7098 0.109603 43.8351 11.5812 41.2257 13.7002V5.84542C41.7961 -1.94543 32.5981 -1.94999 33.1685 5.84542V31.0766C32.5936 38.8675 41.7916 38.872 41.2257 31.0766V22.6282L42.6315 21.4499C45.8292 23.8201 55.656 41.3152 60.273 35.7392C65.3032 31.7708 50.4327 20.1256 48.5958 16.6868L56.7115 8.48042ZM73.4278 35.3419C85.4733 41.708 101.332 29.9395 99.0278 16.3306C92.9287 25.5052 83.6454 32.4923 73.4278 35.3419ZM146.59 23.2766H143.711V21.2125H149.101C151.14 21.2125 152.159 20.5412 152.159 19.1985C152.159 17.8559 151.14 17.177 149.101 17.1618H142.4C141.281 17.1618 140.513 17.3855 140.087 17.8422C139.66 18.2989 139.44 19.0889 139.44 20.2169V33.1819C139.44 34.3144 139.655 35.1045 140.087 35.5611C140.518 36.0178 141.281 36.237 142.4 36.237H146.258C148.315 36.237 149.961 35.689 151.198 34.593C152.482 33.4285 153.129 31.8119 153.129 29.7568C153.129 27.7018 152.545 26.1034 151.391 24.9618C150.237 23.8201 148.629 23.2766 146.59 23.2766ZM145.561 32.2411H143.711V27.2177H145.561C147.511 27.2177 148.487 28.0626 148.49 29.7523C148.503 31.4191 147.511 32.2411 145.561 32.2411ZM200.462 23.2766H197.583V20.0023C197.583 17.9473 196.869 16.9152 195.45 16.9152C194.031 16.9152 193.317 17.9473 193.317 20.0023V33.1819C193.317 34.3144 193.528 35.1045 193.959 35.5611C194.39 36.0178 195.158 36.237 196.272 36.237H200.152C202.205 36.237 203.853 35.689 205.093 34.593C206.377 33.4285 207.024 31.8119 207.024 29.7568C207.024 27.7018 206.44 26.1034 205.286 24.9618C204.132 23.8201 202.501 23.2766 200.462 23.2766ZM199.434 32.2411H197.583V27.2177H199.434C201.389 27.2177 202.365 28.0626 202.362 29.7523C202.359 31.4419 201.383 32.2716 199.434 32.2411ZM164.851 19.404C164.267 17.7326 163.219 16.8969 161.707 16.8969C160.195 16.8969 159.107 17.8377 158.442 19.7191L153.551 33.1636C153.413 33.5641 153.345 33.986 153.349 34.4103C153.334 34.6811 153.375 34.952 153.468 35.206C153.562 35.4599 153.706 35.6913 153.893 35.8854C154.089 36.0762 154.322 36.2241 154.577 36.32C154.832 36.4158 155.103 36.4575 155.375 36.4425C156.336 36.4425 157.022 35.8108 157.432 34.5473L158.204 32.1589H164.838L165.534 34.3921C165.956 35.7621 166.715 36.4425 167.78 36.4425C168.326 36.4555 168.858 36.26 169.271 35.8945C169.472 35.7172 169.632 35.4965 169.739 35.2485C169.847 35.0005 169.898 34.7313 169.89 34.4606C169.857 33.9904 169.752 33.5284 169.581 33.0905L164.851 19.404ZM159.439 28.3229L161.573 21.628H161.622L163.679 28.3229H159.439ZM186.813 16.906C185.394 16.906 184.68 17.9381 184.68 19.9932V24.4868H176.798V20.0023C176.798 17.9473 176.084 16.9152 174.665 16.9152C173.245 16.9152 172.527 17.9427 172.527 19.9977V33.3691C172.527 35.4211 173.239 36.4471 174.665 36.4471C176.084 36.4471 176.798 35.4196 176.798 33.3645V28.5055H184.662V33.3645C184.662 35.4196 185.376 36.4471 186.795 36.4471C188.215 36.4471 188.929 35.4196 188.929 33.3691V20.0023C188.947 17.9518 188.233 16.9243 186.813 16.9243V16.906Z" fill="#1A5632"/>
<path d="M81.0623 0.0867695H81.0129C77.6428 0.083567 74.3383 1.03358 71.4689 2.83057C68.5994 4.62757 66.2781 7.20073 64.7644 10.2623C63.2508 13.3239 62.6045 16.7533 62.8978 20.167C63.1911 23.5807 64.4125 26.8441 66.4254 29.5924C68.2982 20.6371 72.5918 12.7458 83.1911 9.69974C73.8673 17.2622 70.6516 25.7153 70.5079 33.3463C78.7134 30.7021 91.419 20.0023 95.5824 7.53511C93.8994 5.22999 91.7103 3.35628 89.1895 2.06318C86.6686 0.770075 83.8857 0.0933088 81.0623 0.0867695ZM1.03757 8.16988C5.40754 11.6817 15.6969 2.10983 18.751 14.6729C15.8452 15.3123 5.1695 12.5631 5.60964 17.9381C5.12459 23.61 15.7104 20.7421 18.751 21.4043C15.5622 35.9858 4.47336 24.907 0.54354 28.6791C-3.81744 39.8447 19.3842 38.5935 23.085 31.7479C29.0044 25.4184 29.0359 11.8415 22.9368 5.46181C19.0833 -1.58922 -3.38628 -2.64414 1.03757 8.16988ZM203.704 2.44777H108.625C107.466 2.44898 106.354 2.91814 105.535 3.75217C104.715 4.5862 104.255 5.71688 104.255 6.89577V10.1838C104.255 11.3627 104.715 12.4934 105.535 13.3274C106.354 14.1614 107.466 14.6306 108.625 14.6318H203.704C204.864 14.6306 205.976 14.1616 206.796 13.3277C207.616 12.4938 208.077 11.3631 208.079 10.1838V6.89577C208.077 5.71645 207.616 4.58579 206.796 3.75189C205.976 2.91799 204.864 2.44898 203.704 2.44777ZM115.353 11.1017C115.029 11.4622 114.632 11.746 114.189 11.933C113.746 12.12 113.268 12.2057 112.788 12.184C112.486 12.1895 112.184 12.1558 111.89 12.0836C111.584 12.0181 111.293 11.8941 111.032 11.7182C110.902 11.6422 110.793 11.5342 110.715 11.4042C110.636 11.2741 110.591 11.1262 110.583 10.9739C110.581 10.789 110.647 10.6101 110.767 10.4715C110.822 10.4038 110.89 10.3491 110.968 10.3112C111.045 10.2733 111.13 10.2532 111.216 10.2523C111.439 10.2777 111.657 10.3361 111.863 10.4258C112.137 10.5358 112.427 10.596 112.721 10.604C113.166 10.6148 113.599 10.4513 113.929 10.1473C114.249 9.83827 114.445 9.42053 114.481 8.97363H112.573C112.061 8.97363 111.8 8.74073 111.8 8.26579C111.8 7.79085 112.061 7.59448 112.586 7.59448H114.486C114.465 7.39498 114.404 7.20196 114.307 7.0275C114.21 6.85305 114.078 6.70093 113.92 6.58066C113.588 6.33021 113.184 6.19854 112.77 6.20619C112.497 6.20217 112.226 6.25178 111.971 6.35233C111.774 6.4412 111.562 6.49081 111.347 6.49846C111.254 6.49984 111.163 6.48098 111.078 6.44315C110.994 6.40532 110.918 6.34942 110.857 6.27926C110.729 6.14095 110.66 5.95738 110.664 5.76778C110.668 5.61093 110.723 5.45993 110.821 5.33851C111.18 4.88184 111.832 4.6261 112.784 4.6261C113.263 4.60683 113.74 4.69551 114.181 4.88579C114.622 5.07607 115.016 5.36323 115.335 5.72668C115.972 6.46791 116.308 7.42806 116.273 8.41192C116.314 9.39489 115.985 10.3566 115.353 11.1017ZM128.669 11.9466C128.601 12.0207 128.52 12.08 128.428 12.1209C128.337 12.1617 128.239 12.1832 128.139 12.184C127.958 12.1539 127.785 12.0865 127.631 11.986C127.476 11.8855 127.344 11.754 127.241 11.5995L125.054 9.01473L124.766 9.26133V10.9967C124.766 11.7867 124.492 12.184 123.94 12.184C123.388 12.184 123.114 11.7867 123.114 10.9921V5.84542C123.114 5.04624 123.388 4.64893 123.94 4.64893C124.492 4.64893 124.766 5.04624 124.766 5.84542V7.45291L126.873 5.24261C127.255 4.84987 127.551 4.64893 127.771 4.64893C127.982 4.65119 128.184 4.73439 128.337 4.88184C128.415 4.95087 128.478 5.03648 128.521 5.1327C128.564 5.22892 128.585 5.33344 128.584 5.43898C128.568 5.63435 128.483 5.81738 128.346 5.95502C128.346 5.95502 128.202 6.10572 127.928 6.37516L126.262 8.06485L128.481 10.6085C128.708 10.8257 128.854 11.1162 128.894 11.4305C128.893 11.5276 128.873 11.6235 128.834 11.7123C128.796 11.8011 128.74 11.8808 128.669 11.9466ZM140.468 11.4899C140.095 12.0059 139.39 12.2708 138.343 12.2708C137.853 12.2935 137.364 12.2049 136.912 12.0114C136.46 11.8178 136.056 11.5242 135.729 11.152C135.086 10.3923 134.75 9.41354 134.786 8.41192C134.758 7.40755 135.102 6.42908 135.752 5.67188C136.077 5.29726 136.48 5.00027 136.931 4.80212C137.382 4.60397 137.87 4.50956 138.361 4.52563C138.734 4.52643 139.105 4.5818 139.462 4.69003C139.812 4.78384 140.126 4.98468 140.36 5.26544C140.467 5.39248 140.526 5.55456 140.526 5.72212C140.523 5.91789 140.448 6.10533 140.315 6.24729C140.253 6.31817 140.177 6.37479 140.092 6.41338C140.007 6.45197 139.914 6.47163 139.821 6.47106C139.597 6.4593 139.377 6.40832 139.17 6.32036C138.909 6.21636 138.632 6.16367 138.352 6.16509C138.081 6.15428 137.812 6.21556 137.571 6.34288C137.33 6.47021 137.125 6.65919 136.978 6.8912C136.687 7.36849 136.543 7.92366 136.565 8.48499C136.543 9.03439 136.701 9.57566 137.014 10.024C137.175 10.2426 137.387 10.4174 137.631 10.5329C137.874 10.6484 138.142 10.7011 138.411 10.6862C138.718 10.6801 139.022 10.6199 139.309 10.5081C139.518 10.4146 139.739 10.3516 139.965 10.3208C140.055 10.3219 140.145 10.3434 140.226 10.3836C140.308 10.4239 140.379 10.482 140.436 10.5537C140.563 10.6909 140.632 10.8726 140.629 11.0606C140.624 11.2236 140.568 11.3806 140.468 11.5082V11.4899ZM153.807 10.9739C153.807 11.7685 153.533 12.1612 152.98 12.1612C152.428 12.1612 152.158 11.7685 152.158 10.9739V6.20619H149.109V10.9921C149.109 11.7867 148.835 12.1795 148.282 12.1795C147.73 12.1795 147.456 11.7867 147.456 10.9921V5.90479C147.456 5.11017 147.833 4.71287 148.592 4.71287H152.67C153.429 4.71287 153.807 5.11017 153.807 5.90479V10.9739ZM165.69 9.0604C165.44 9.28887 165.148 9.46461 164.83 9.57749C164.512 9.69036 164.176 9.73812 163.84 9.71801H162.726V10.9784C162.726 11.7685 162.448 12.1658 161.895 12.1658C161.343 12.1658 161.078 11.7822 161.078 10.9921V5.89565C161.048 5.57003 161.137 5.24455 161.329 4.98231C161.584 4.77902 161.906 4.68406 162.228 4.71744H163.723C164.417 4.68388 165.098 4.91152 165.637 5.35678C165.884 5.59426 166.077 5.88344 166.203 6.20434C166.33 6.52524 166.386 6.87022 166.369 7.21544C166.39 7.55696 166.341 7.89923 166.224 8.22016C166.107 8.54109 165.925 8.83355 165.69 9.07866V9.0604ZM176.29 12.0836H174.354C174.047 12.1163 173.737 12.0405 173.478 11.8689C173.382 11.7519 173.311 11.6162 173.269 11.4701C173.226 11.3241 173.213 11.1708 173.231 11.0195V5.90479C173.204 5.58016 173.292 5.25634 173.478 4.99144C173.734 4.79063 174.055 4.69743 174.376 4.73114H176.24C177.022 4.73114 177.417 4.99144 177.417 5.52575C177.417 6.06005 177.022 6.30209 176.24 6.30209H174.893V7.61731H176.052C176.838 7.61731 177.228 7.87761 177.228 8.39365C177.228 8.9097 176.838 9.16543 176.052 9.16543H174.893V10.572H176.294C177.08 10.572 177.466 10.8323 177.466 11.3483C177.466 11.8644 177.076 12.1018 176.29 12.1018V12.0836ZM189.669 11.4899C189.296 12.0059 188.591 12.2708 187.54 12.2708C187.05 12.2926 186.562 12.2035 186.11 12.01C185.658 11.8165 185.254 11.5235 184.926 11.152C184.286 10.3912 183.953 9.41239 183.992 8.41192C183.96 7.4078 184.303 6.4286 184.953 5.67188C185.28 5.29461 185.684 4.99568 186.138 4.79666C186.591 4.59765 187.083 4.50352 187.576 4.52107C187.947 4.52153 188.317 4.57691 188.672 4.68547C189.022 4.779 189.336 4.97989 189.57 5.26088C189.678 5.38792 189.737 5.54999 189.737 5.71755C189.733 5.91333 189.658 6.10077 189.525 6.24272C189.463 6.31395 189.386 6.37076 189.3 6.40935C189.214 6.44794 189.121 6.46742 189.027 6.46649C188.804 6.45421 188.586 6.40324 188.38 6.31579C188.12 6.21274 187.842 6.16009 187.563 6.16052C187.291 6.14971 187.022 6.21099 186.781 6.33832C186.54 6.46564 186.336 6.65462 186.188 6.88663C185.899 7.3648 185.755 7.91934 185.775 8.48042C185.751 9.03013 185.909 9.57218 186.224 10.0194C186.386 10.238 186.598 10.4129 186.841 10.5284C187.085 10.6439 187.353 10.6965 187.621 10.6816C187.928 10.6755 188.232 10.6153 188.519 10.5035C188.727 10.4108 188.946 10.3478 189.171 10.3162C189.262 10.3167 189.352 10.3378 189.434 10.3781C189.517 10.4184 189.589 10.4768 189.647 10.5492C189.773 10.6863 189.842 10.868 189.84 11.0561C189.833 11.2217 189.773 11.3805 189.669 11.5082V11.4899ZM201.975 11.4899C201.602 12.0059 200.893 12.2708 199.846 12.2708C199.356 12.2926 198.866 12.2036 198.414 12.0101C197.961 11.8167 197.556 11.5236 197.228 11.152C196.588 10.3907 196.253 9.41266 196.289 8.41192C196.263 7.40791 196.607 6.43023 197.255 5.67188C197.58 5.29701 197.982 4.99985 198.433 4.80168C198.884 4.60351 199.373 4.50924 199.864 4.52563C200.234 4.52576 200.602 4.58115 200.956 4.69003C201.315 4.78034 201.638 4.98131 201.881 5.26544C201.985 5.39393 202.042 5.55541 202.042 5.72212C202.043 5.91781 201.969 6.10615 201.836 6.24729C201.773 6.31784 201.696 6.37418 201.61 6.41272C201.524 6.45125 201.431 6.47112 201.337 6.47106C201.114 6.45391 200.895 6.39671 200.691 6.30209C200.43 6.19904 200.153 6.14639 199.873 6.14682C199.602 6.13509 199.332 6.19597 199.091 6.32338C198.85 6.45079 198.646 6.64028 198.499 6.87293C198.206 7.34971 198.06 7.90493 198.081 8.46672C198.059 9.01612 198.217 9.55739 198.53 10.0057C198.692 10.2237 198.904 10.3981 199.148 10.5136C199.391 10.629 199.659 10.682 199.927 10.6679C200.234 10.6622 200.538 10.6019 200.825 10.4898C201.036 10.3961 201.258 10.3331 201.486 10.3025C201.576 10.3037 201.665 10.3251 201.747 10.3654C201.828 10.4056 201.9 10.4637 201.957 10.5355C202.082 10.6736 202.151 10.8547 202.15 11.0424C202.144 11.2129 202.082 11.3765 201.975 11.5082V11.4899ZM163.44 6.24729H162.726V8.18815H163.44C164.199 8.18815 164.572 7.85935 164.572 7.21087C164.572 6.5624 164.222 6.26556 163.44 6.26556V6.24729Z" fill="#73BC25"/>
</g>
<defs>
<clipPath id="clip0_520_30">
<rect width="212" height="40" fill="white"/>
</clipPath>
</defs>
</svg>
