<svg width="279" height="267" viewBox="0 0 279 267" fill="none" xmlns="http://www.w3.org/2000/svg">
<path d="M2.07129 82.4979L0.513904 62.7785L4.71471 57.4017L5.71504 61.513L16.5919 70.2556L23.3228 68.6179L22.1686 63.8741L27.7434 56.1532L35.9363 60.5243L37.5522 67.1655L42.9035 63.8536L46.0473 68.7832L54.3794 63.0712L63.1878 69.9723L91.0218 57.8403L93.2349 53.6172L101.642 46.882L100.565 42.4545L102.007 33.7293L100.995 21.5814L104.663 18.0092L111.608 5.2653L121.704 2.80873L127.908 6.99392L130.974 11.6073L140.008 15.4387L155.998 14.5629L174.511 12.0684L183.759 4.79361L201.198 0.550442L205.412 4.54978L217.432 9.99947L235.651 16.9555L258.475 33.5104L275.581 65.1904L287.383 79.0674L293.203 83.0108L295.897 94.0795L306.165 105.65L307.012 109.129L285.289 114.414L289.644 109.67L287.413 100.498L284.271 96.9083L280.808 82.6771L270.017 80.9479L265.785 63.5542L258.208 61.7131L247.194 64.393L244.601 71.0533L240.095 76.5045L241.787 83.462L240.573 90.457L245.25 97.6932L250.31 105.171L256.515 110.696L254.388 121.933L274.165 148.608L264.93 165.259L267.393 175.379L276.753 193.87L278.138 199.562L291.094 218.183L285.063 228.025L288.284 233.271L286.769 244.358L283.801 256.135L278.294 257.475L276.543 263.595L266.752 265.977L255.097 247.375L252.343 248.045L247.142 249.311L244.009 252.418L221.426 243.509L214.143 233.557L215.759 240.198L212.247 245.742L200.462 243.92L197.78 240.888L198.846 237.279L197.692 232.535L197.673 219.14L193.229 214.192L186.793 207.719L184.869 199.813L197.107 196.835L201.167 200.202L213.115 209.354L218.921 202.581L231.159 199.604L227.619 185.056L228.059 170.881L209.396 175.421L208.088 170.045L199.276 160.465L191.933 162.252L188.873 162.996L190.856 157.824L181.237 118.293L188.118 114.609L182.21 102.313L181.21 98.2014L179.517 91.2439L180.731 84.2489L190.142 84.3039L190.593 78.1647L181.706 69.608L180.628 65.1805L173.421 54.2051L171.805 47.5639L160.384 32.5892L153.045 37.0547L140.054 48.9248L132.631 47.7163L127.124 49.0562L125.288 49.5029L130.169 37.5963L122.287 37.1691L106.305 43.4027L107.459 48.1465L113.05 52.4805L134.798 65.9474L135.414 68.4774L129.229 77.6866L128.471 82.5608L114.703 85.9107L72.3262 94.2116L68.0429 95.2538L52.2801 94.3995L38.4244 89.3965L24.1876 85.4911L23.1873 81.3798L16.1449 79.0736L14.3093 79.5203L10.3319 80.488L2.07129 82.4979Z" stroke="#ECC4A4"/>
</svg>
